<mxfile host="Electron" agent="Mozilla/5.0 (Macintosh; Intel Mac OS X 10_15_7) AppleWebKit/537.36 (KHTML, like Gecko) draw.io/26.2.15 Chrome/134.0.6998.205 Electron/35.2.1 Safari/537.36" version="26.2.15">
  <diagram name="Seite-1" id="HnKSzxwPdvFNOMTLyof-">
    <mxGraphModel dx="1234" dy="1967" grid="1" gridSize="10" guides="1" tooltips="1" connect="1" arrows="1" fold="1" page="1" pageScale="1" pageWidth="827" pageHeight="1169" math="0" shadow="0">
      <root>
        <mxCell id="0" />
        <mxCell id="1" parent="0" />
        <mxCell id="scevhRzglRi574TnSYXp-15" value="NS: Default" style="rounded=0;whiteSpace=wrap;html=1;fillColor=none;strokeWidth=2;dashed=1;dashPattern=12 12;verticalAlign=bottom;align=right;" vertex="1" parent="1">
          <mxGeometry x="460" y="200" width="110" height="260" as="geometry" />
        </mxCell>
        <mxCell id="scevhRzglRi574TnSYXp-2" value="OnepSUSE VM" style="rounded=0;whiteSpace=wrap;html=1;dashed=1;fillColor=none;align=left;verticalAlign=bottom;movable=1;resizable=1;rotatable=1;deletable=1;editable=1;locked=0;connectable=1;" vertex="1" parent="1">
          <mxGeometry x="160" y="150" width="520" height="420" as="geometry" />
        </mxCell>
        <mxCell id="scevhRzglRi574TnSYXp-14" value="NS: Falco" style="rounded=0;whiteSpace=wrap;html=1;fillColor=none;strokeWidth=2;dashed=1;dashPattern=12 12;verticalAlign=bottom;align=right;" vertex="1" parent="1">
          <mxGeometry x="300" y="200" width="110" height="260" as="geometry" />
        </mxCell>
        <mxCell id="scevhRzglRi574TnSYXp-1" value="RKE Cluster" style="rounded=0;whiteSpace=wrap;html=1;" vertex="1" parent="1">
          <mxGeometry x="180" y="470" width="390" height="20" as="geometry" />
        </mxCell>
        <mxCell id="scevhRzglRi574TnSYXp-3" value="Docker" style="rounded=0;whiteSpace=wrap;html=1;" vertex="1" parent="1">
          <mxGeometry x="180" y="500" width="390" height="20" as="geometry" />
        </mxCell>
        <mxCell id="scevhRzglRi574TnSYXp-4" value="vuln app" style="rounded=0;whiteSpace=wrap;html=1;" vertex="1" parent="1">
          <mxGeometry x="470" y="242.5" width="90" height="60" as="geometry" />
        </mxCell>
        <mxCell id="scevhRzglRi574TnSYXp-18" style="rounded=0;orthogonalLoop=1;jettySize=auto;html=1;entryX=0.5;entryY=0;entryDx=0;entryDy=0;" edge="1" parent="1" source="scevhRzglRi574TnSYXp-5" target="scevhRzglRi574TnSYXp-4">
          <mxGeometry relative="1" as="geometry" />
        </mxCell>
        <mxCell id="scevhRzglRi574TnSYXp-5" value="Internet" style="image;aspect=fixed;perimeter=ellipsePerimeter;html=1;align=center;shadow=0;dashed=0;spacingTop=3;image=img/lib/active_directory/internet_cloud.svg;" vertex="1" parent="1">
          <mxGeometry x="400" y="-20" width="228.73" height="144.1" as="geometry" />
        </mxCell>
        <mxCell id="scevhRzglRi574TnSYXp-19" style="edgeStyle=orthogonalEdgeStyle;rounded=0;orthogonalLoop=1;jettySize=auto;html=1;entryX=0.5;entryY=1;entryDx=0;entryDy=0;" edge="1" parent="1" source="scevhRzglRi574TnSYXp-6" target="scevhRzglRi574TnSYXp-4">
          <mxGeometry relative="1" as="geometry" />
        </mxCell>
        <mxCell id="scevhRzglRi574TnSYXp-6" value="postgres" style="strokeWidth=2;html=1;shape=mxgraph.flowchart.database;whiteSpace=wrap;" vertex="1" parent="1">
          <mxGeometry x="485" y="345" width="60" height="60" as="geometry" />
        </mxCell>
        <mxCell id="scevhRzglRi574TnSYXp-7" value="prometheus" style="rounded=0;whiteSpace=wrap;html=1;verticalAlign=bottom;" vertex="1" parent="1">
          <mxGeometry x="190" y="345" width="90" height="60" as="geometry" />
        </mxCell>
        <mxCell id="scevhRzglRi574TnSYXp-8" value="" style="verticalLabelPosition=bottom;sketch=0;html=1;fillColor=#A153A0;strokeColor=#ffffff;verticalAlign=top;align=center;points=[[0,0.5,0],[0.125,0.25,0],[0.25,0,0],[0.5,0,0],[0.75,0,0],[0.875,0.25,0],[1,0.5,0],[0.875,0.75,0],[0.75,1,0],[0.5,1,0],[0.125,0.75,0]];pointerEvents=1;shape=mxgraph.cisco_safe.compositeIcon;bgIcon=mxgraph.cisco_safe.design.blank_device;resIcon=mxgraph.cisco_safe.design.monitoring_2;" vertex="1" parent="1">
          <mxGeometry x="211.27" y="345" width="50" height="45" as="geometry" />
        </mxCell>
        <mxCell id="scevhRzglRi574TnSYXp-9" value="Falco" style="rounded=0;whiteSpace=wrap;html=1;verticalAlign=bottom;" vertex="1" parent="1">
          <mxGeometry x="310" y="345" width="90" height="60" as="geometry" />
        </mxCell>
        <mxCell id="scevhRzglRi574TnSYXp-10" value="" style="verticalLabelPosition=bottom;sketch=0;html=1;fillColor=#A153A0;strokeColor=#ffffff;verticalAlign=top;align=center;points=[[0,0.5,0],[0.125,0.25,0],[0.25,0,0],[0.5,0,0],[0.75,0,0],[0.875,0.25,0],[1,0.5,0],[0.875,0.75,0],[0.75,1,0],[0.5,1,0],[0.125,0.75,0]];pointerEvents=1;shape=mxgraph.cisco_safe.compositeIcon;bgIcon=mxgraph.cisco_safe.design.blank_device;resIcon=mxgraph.cisco_safe.design.monitoring_2;" vertex="1" parent="1">
          <mxGeometry x="331.27" y="345" width="48.73" height="45" as="geometry" />
        </mxCell>
        <mxCell id="scevhRzglRi574TnSYXp-11" value="Grafana" style="swimlane;html=1;fillColor=#ffffff;whiteSpace=wrap" vertex="1" parent="1">
          <mxGeometry x="190" y="260" width="90" height="47.5" as="geometry" />
        </mxCell>
        <mxCell id="scevhRzglRi574TnSYXp-13" value="NS:Monitoring" style="rounded=0;whiteSpace=wrap;html=1;fillColor=none;strokeWidth=2;dashed=1;dashPattern=12 12;verticalAlign=bottom;align=right;" vertex="1" parent="1">
          <mxGeometry x="180" y="200" width="110" height="260" as="geometry" />
        </mxCell>
      </root>
    </mxGraphModel>
  </diagram>
</mxfile>
